<svg width="24" height="24" viewBox="0 0 24 24" fill="none" xmlns="http://www.w3.org/2000/svg">
<path fill-rule="evenodd" clip-rule="evenodd" d="M6 22C8.9745 22 11.7323 21.0724 14 19.4906V11.7575L12.8283 10.5858L11.4141 12L12.8283 13.4142L11.4141 14.8284L9.99992 13.4142L8.5857 14.8284L9.99987 16.2426L8.58566 17.6568L4.34302 13.4142L5.75723 12L7.17149 13.4142L8.5857 12L7.17149 10.5858L8.5857 9.17159L9.99992 10.5858L11.4141 9.17159L9.99996 7.75742L11.4142 6.3432L14.4494 9.37845C14.7482 8.6505 15.1902 7.98142 15.7574 7.41421L16 7.17157V2.14178C15.3468 2.04834 14.679 2 14 2C6.26801 2 0 8.26801 0 16C0 17.7837 0.333564 19.4894 0.941708 21.0583C2.51058 21.6664 4.21634 22 6 22ZM22 2H18V7.17157C18 7.70201 17.7893 8.21071 17.4142 8.58579L17.1716 8.82843C16.4214 9.57857 16 10.596 16 11.6569V20C16 21.1046 16.8954 22 18 22H22C23.1046 22 24 21.1046 24 20V11.6569C24 10.596 23.5786 9.57857 22.8284 8.82843L22.5858 8.58579C22.2107 8.21071 22 7.70201 22 7.17157V2ZM18 12H22V18H18V12Z" fill="black"/>
</svg>
