<svg width="24" height="24" viewBox="0 0 24 24" fill="none" xmlns="http://www.w3.org/2000/svg">
<path fill-rule="evenodd" clip-rule="evenodd" d="M13.8284 3.51471C15.3905 5.07681 15.3905 7.60947 13.8284 9.17157C12.6026 10.3974 10.1962 10.9149 8.38296 11.1333C7.34559 11.2583 6.48018 11.995 6.179 12.9956C5.94485 13.7734 5.65586 14.5157 5.34317 14.8284C4.56212 15.6095 3.29579 15.6095 2.51474 14.8284C1.73369 14.0474 1.73369 12.781 2.51474 12C2.82743 11.6873 3.56976 11.3983 4.3476 11.1642C5.34812 10.863 6.08488 9.99757 6.20985 8.96021C6.4283 7.14696 6.94577 4.74054 8.1716 3.51471C9.73369 1.95262 12.2664 1.95262 13.8284 3.51471ZM12 12H23C23 18.0751 18.0752 23 12 23V12ZM14 14H16V16H14V14ZM20 14H18V16H20V14ZM14 18H16V20H14V18Z" fill="black"/>
</svg>
