<svg width="24" height="24" viewBox="0 0 24 24" fill="none" xmlns="http://www.w3.org/2000/svg">
<path fill-rule="evenodd" clip-rule="evenodd" d="M6 2H10V4H8V8C8 10.2091 9.79086 12 12 12C14.2091 12 16 10.2091 16 8V4H14V2H18V8C18 10.973 15.8377 13.441 13 13.917V16H15.1707C15.5825 14.8348 16.6938 14 18 14C19.6569 14 21 15.3431 21 17C21 18.6569 19.6569 20 18 20C16.6938 20 15.5825 19.1652 15.1707 18H13H9C7.89543 18 7 18.8954 7 20C7 21.1046 7.89543 22 9 22C10.1046 22 11 21.1046 11 20H13C13 22.2091 11.2091 24 9 24C6.79086 24 5 22.2091 5 20C5 17.7909 6.79086 16 9 16H11V13.917C8.16229 13.441 6 10.973 6 8V2Z" fill="black"/>
</svg>
