<svg width="24" height="24" viewBox="0 0 24 24" fill="none" xmlns="http://www.w3.org/2000/svg">
<path fill-rule="evenodd" clip-rule="evenodd" d="M15 2C14.4477 2 14 2.44772 14 3V4H7.23607C6.47852 4 5.786 4.428 5.44721 5.10557L3 10L1.58579 11.4142C1.21071 11.7893 1 12.298 1 12.8284V18H3.12602C3.57006 16.2748 5.13616 15 7 15C8.86384 15 10.4299 16.2748 10.874 18H13.126C13.5701 16.2748 15.1362 15 17 15C18.8638 15 20.4299 16.2748 20.874 18H23V6C23 4.89543 22.1046 4 21 4V3C21 2.44772 20.5523 2 20 2H15ZM21 6H14V12H21V6ZM8 8H6V12H8V8ZM10 12H12V8H10V12ZM9 19C9 20.1046 8.10457 21 7 21C5.89543 21 5 20.1046 5 19C5 17.8954 5.89543 17 7 17C8.10457 17 9 17.8954 9 19ZM17 21C18.1046 21 19 20.1046 19 19C19 17.8954 18.1046 17 17 17C15.8954 17 15 17.8954 15 19C15 20.1046 15.8954 21 17 21Z" fill="black"/>
</svg>
