<svg width="24" height="24" viewBox="0 0 24 24" fill="none" xmlns="http://www.w3.org/2000/svg">
<path fill-rule="evenodd" clip-rule="evenodd" d="M2 6C2 5.44772 2.44772 5 3 5H21C21.5523 5 22 5.44772 22 6V17H2V6ZM14 9H10V13H14V9ZM10 7H8V9V13V15H10H14H16V13V9V7H14H10ZM20 10.9999C20 12.6357 19.2144 14.088 18 15.0002V6.99951C19.2144 7.91172 20 9.36406 20 10.9999ZM6 15.0002C4.78555 14.088 4 12.6357 4 10.9999C4 9.36406 4.78555 7.91172 6 6.99951V15.0002ZM22 19H2V20C2 20.5523 2.44772 21 3 21H21C21.5523 21 22 20.5523 22 20V19Z" fill="black"/>
</svg>
