<svg width="24" height="24" viewBox="0 0 24 24" fill="none" xmlns="http://www.w3.org/2000/svg">
<path fill-rule="evenodd" clip-rule="evenodd" d="M3 22V15L4.58555 9.45056C4.83087 8.59196 5.61564 8 6.5086 8H9H15H17.4914C18.3844 8 19.1691 8.59195 19.4144 9.45056L21 15V22C21 22.55 20.55 23 20 23H19C18.45 23 18 22.55 18 22V21H6V22C6 22.55 5.55 23 5 23H4C3.45 23 3 22.55 3 22ZM6.5 19C5.67 19 5 18.33 5 17.5C5 16.67 5.67 16 6.5 16C7.33 16 8 16.67 8 17.5C8 18.33 7.33 19 6.5 19ZM17.5 19C16.67 19 16 18.33 16 17.5C16 16.67 16.67 16 17.5 16C18.33 16 19 16.67 19 17.5C19 18.33 18.33 19 17.5 19ZM18.3485 13H5.65146L6.5086 10H17.4914L18.3485 13Z" fill="black"/>
</svg>
